# xmcd CD database file
#
# Track frame offsets:
#	150
#	22152
#	35855
#	51480
#	78995
#	96265
#	107550
#	129217
#	144675
#	155367
#	173815
#	192925
#	216045
#
# Disc length: 3153 seconds
#
# Revision: 0
# Processed by: cddbd v1.5.1PL0 Copyright (c) Steve Scherf et al.
# Submitted via: CDex 1.51
#
DISCID=b60c4f0d
DTITLE=銀河管弦楽団 - スターラブ・スターライト
DYEAR=1900
DGENRE=Instrumental
TTITLE0=星空の物語
TTITLE1=アナザー・ワールド
TTITLE2=風のうた
TTITLE3=草原I,II,III
TTITLE4=ヴォイス・オブ・ネイチャー
TTITLE5=それぞれの人生
TTITLE6=記念日
TTITLE7=フレンドシップ
TTITLE8=傘〜アンブレラ
TTITLE9=風の街
TTITLE10=浜辺の花
TTITLE11=星空のダンス
TTITLE12=天女伝説
EXTD=
EXTT0=
EXTT1=
EXTT2=
EXTT3=
EXTT4=
EXTT5=
EXTT6=
EXTT7=
EXTT8=
EXTT9=
EXTT10=
EXTT11=
EXTT12=
PLAYORDER=
